<?xml version="1.0" standalone="no"?><!DOCTYPE svg PUBLIC "-//W3C//DTD SVG 1.1//EN" "http://www.w3.org/Graphics/SVG/1.1/DTD/svg11.dtd"><svg t="1647593857366" class="icon" viewBox="0 0 1024 1024" version="1.1" xmlns="http://www.w3.org/2000/svg" p-id="28343" width="32" height="32" xmlns:xlink="http://www.w3.org/1999/xlink"><defs><style type="text/css"></style></defs><path d="M707.008 130.752a188.544 188.544 0 0 1 256.384 115.456C1003.84 374.4 1024 526.912 1024 704c0 265.856-126.272 295.168-321.6 83.52a160 160 0 0 0-105.408-51.072l-12.16-0.448H438.656a160 160 0 0 0-117.632 51.584C126.08 999.168 0 969.792 0 704c0-177.088 20.16-329.664 60.608-457.792a188.544 188.544 0 0 1 236.672-122.88l9.92 3.392 9.792 4.032 85.504 38.016a269.568 269.568 0 0 0 204.032 6.08l14.976-6.08 85.504-38.016z m-429.056 53.568a124.544 124.544 0 0 0-156.288 81.216C83.2 386.88 64 533.056 64 704l0.256 24.64c3.968 165.376 50.624 179.584 180.928 46.016l9.408-9.792 19.328-20.672a224 224 0 0 1 150.4-71.68l14.336-0.512h146.176a224 224 0 0 1 164.608 72.064l19.84 21.12c134.4 140.416 184.128 132.992 190.08-25.472l0.384-11.52L960 704c0-170.944-19.264-317.12-57.6-438.464A124.544 124.544 0 0 0 742.016 185.6l-9.088 3.584-85.504 38.016a333.568 333.568 0 0 1-254.784 6.656l-16.192-6.656-85.504-38.016a124.544 124.544 0 0 0-13.056-4.928zM544 544a32 32 0 0 1 0 64h-64a32 32 0 0 1 0-64h64zM275.2 320a32 32 0 0 1 32 32v51.2h51.2a32 32 0 0 1 0 64h-51.2v51.2a32 32 0 0 1-64 0v-51.2H192a32 32 0 0 1 0-64h51.2v-51.2a32 32 0 0 1 32-32z m473.6 153.6a38.4 38.4 0 1 1 0 76.8 38.4 38.4 0 0 1 0-76.8z m-76.8-76.8a38.4 38.4 0 1 1 0 76.8 38.4 38.4 0 0 1 0-76.8z m153.6 0a38.4 38.4 0 1 1 0 76.8 38.4 38.4 0 0 1 0-76.8zM748.8 320a38.4 38.4 0 1 1 0 76.8 38.4 38.4 0 0 1 0-76.8z" fill="#bfbfbf" p-id="28344"></path></svg>